#!OML:ASF I:\Actors\actors\Patient Classification 2\Patient 1\Session 1\actor1.ASF
:FULLY-SPECIFIED
:DEGREES
550
root -0.584957 18.7567 5.5007 3.44164 -3.36322 -2.77044
lowerback 8.54926 1.3536 -0.861701
upperback 1.50958 1.65866 -1.64597
thorax -3.20262 0.824989 -1.40285
lowerneck -14.3657 -2.12828 -0.777151
upperneck 31.3708 -4.30278 4.27771
head 12.9914 -1.43272 1.13642
rclavicle -2.64384e-014 2.54444e-014
rhumerus 1.24637 44.2715 -53.594
rradius 88.5412
rwrist 12.7788
rhand -3.09929 -39.3245
rfingers 7.12502
rthumb 22.6187 -428.019
lclavicle -2.64384e-014 2.54444e-014
lhumerus -0.853035 -34.6085 74.7934
lradius 77.1424
lwrist 9.58539
lhand -12.6503 -31.7594
lfingers 7.12502
lthumb 13.4302 -2.21233
rfemur 0 0 0
rtibia 0
rfoot 0 0
rtoes 0
lfemur -6.93364 -6.58002 -11.7307
ltibia 22.952
lfoot -24.3045 16.3765
ltoes -53.5238
551
root -0.589333 18.7587 5.49596 3.42747 -3.26264 -2.75128
lowerback 8.56681 1.30088 -0.610519
upperback 1.52026 1.60676 -1.77623
thorax -3.19151 0.796373 -1.67336
lowerneck -14.3626 -2.04058 -0.728964
upperneck 31.5565 -4.19132 4.25937
head 13.0634 -1.37734 1.1402
rclavicle 9.93923e-015 -3.18055e-015
rhumerus 1.72788 43.2921 -53.3049
rradius 88.9649
rwrist 12.9273
rhand -3.26414 -39.3441
rfingers 7.12502
rthumb 22.4604 -428.058
lclavicle 9.93923e-015 -3.18055e-015
lhumerus -0.848681 -34.6418 74.5838
lradius 77.0076
lwrist 9.56975
lhand -12.6617 -31.6802
lfingers 7.12502
lthumb 13.4193 -2.1324
rfemur 0 0 0
rtibia 0
rfoot 0 0
rtoes 0
lfemur -6.89777 -6.49543 -11.7149
ltibia 22.8107
lfoot -24.0899 16.3285
ltoes -53.6347
552
root -0.591937 18.7592 5.49336 3.40346 -3.17956 -2.70925
lowerback 8.48636 1.2761 -0.406547
upperback 1.59302 1.59031 -1.91008
thorax -3.0624 0.786658 -1.92117
lowerneck -14.4874 -2.02687 -0.7839
upperneck 31.7258 -4.19153 4.34015
head 13.1658 -1.36844 1.18234
rclavicle -7.15625e-015 2.22639e-014
rhumerus 2.20086 42.615 -52.8582
rradius 89.044
rwrist 12.5996
rhand -2.73616 -39.3229
rfingers 7.12502
rthumb 22.9672 -427.975
lclavicle -7.15625e-015 2.22639e-014
lhumerus -0.628092 -34.6832 74.38
lradius 76.7599
lwrist 9.51471
lhand -12.6512 -31.5676
lfingers 7.12502
lthumb 13.4294 -2.0205
rfemur 0 0 0
rtibia 0
rfoot 0 0
rtoes 0
lfemur -6.86966 -6.47077 -11.7401
ltibia 22.7382
lfoot -23.973 16.3061
ltoes -53.7024
553
root -0.595496 18.7597 5.49219 3.39562 -3.103 -2.67109
lowerback 8.33428 1.28994 -0.274169
upperback 1.67707 1.62049 -2.02619
thorax -2.88289 0.80159 -2.11313
lowerneck -14.6762 -2.08805 -0.916141
upperneck 31.8729 -4.31188 4.5211
head 13.2826 -1.40731 1.25805
rclavicle 1.94809e-014 7.95139e-016
rhumerus 2.37129 42.712 -52.2737
rradius 88.6028
rwrist 13.1109
rhand -3.22193 -39.1131
rfingers 7.12502
rthumb 22.501 -427.822
lclavicle 1.94809e-014 7.95139e-016
lhumerus -0.303114 -34.7274 74.2565
lradius 76.486
lwrist 9.42035
lhand -12.5666 -31.4834
lfingers 7.12502
lthumb 13.511 -1.94167
rfemur 0 0 0
rtibia 0
rfoot 0 0
rtoes 0
lfemur -6.86416 -6.53512 -11.7635
ltibia 22.7047
lfoot -23.9527 16.2974
ltoes -53.7011
554
root -0.6001 18.76 5.49055 3.40172 -3.03093 -2.66636
lowerback 8.59928 1.39668 0.0370297
upperback 1.46671 1.77463 -2.26308
thorax -3.22576 0.871317 -2.56333
lowerneck -14.7317 -2.26498 -1.0296
upperneck 32.1359 -4.66725 4.86196
head 13.4365 -1.5248 1.35964
rclavicle 3.18055e-015 -2.8625e-014
rhumerus 1.46855 43.3813 -52.2513
rradius 88.0269
rwrist 13.1701
rhand -3.58519 -39.3966
rfingers 7.12502
rthumb 22.1522 -428.147
lclavicle 3.18055e-015 -2.8625e-014
lhumerus -0.317405 -35.2201 74.283
lradius 76.289
lwrist 9.41319
lhand -12.5019 -31.4278
lfingers 7.12502
lthumb 13.5733 -1.89023
rfemur 0 0 0
rtibia 0
rfoot 0 0
rtoes 0
lfemur -6.87483 -6.69111 -11.7506
ltibia 22.6799
lfoot -23.9928 16.3421
ltoes -53.6627
555
root -0.605097 18.7608 5.48871 3.42123 -2.96972 -2.68095
lowerback 8.51378 1.49898 0.00948083
upperback 1.48298 1.90873 -2.28645
thorax -3.15557 0.938875 -2.58351
lowerneck -15.0097 -2.41744 -1.15872
upperneck 32.2041 -4.91046 5.01669
head 13.5465 -1.61875 1.40342
rclavicle 1.45113e-014 -8.74653e-015
rhumerus 1.20991 44.3396 -51.548
rradius 87.0369
rwrist 13.1995
rhand -3.77025 -39.6675
rfingers 7.12502
rthumb 21.9746 -428.439
lclavicle 1.45113e-014 -8.74653e-015
lhumerus -0.0242002 -35.3551 74.368
lradius 76.1061
lwrist 9.46093
lhand -12.4972 -31.4072
lfingers 7.12502
lthumb 13.5779 -1.86996
rfemur 0 0 0
rtibia 0
rfoot 0 0
rtoes 0
lfemur -6.91386 -6.8075 -11.7144
ltibia 22.6727
lfoot -23.9961 16.424
ltoes -53.6963
556
root -0.610374 18.7614 5.48771 3.45984 -2.90771 -2.69838
lowerback 8.01155 1.56187 -0.408843
upperback 1.76521 1.97673 -2.04622
thorax -2.6042 0.98169 -2.08264
lowerneck -15.4018 -2.51484 -1.34333
upperneck 32.0087 -4.96033 4.93925
head 13.5517 -1.66877 1.39035
rclavicle 7.55382e-015 -7.95139e-015
rhumerus 1.90384 45.4219 -49.9178
rradius 85.9781
rwrist 13.0954
rhand -3.46949 -39.6599
rfingers 7.12502
rthumb 22.2633 -428.397
lclavicle 7.55382e-015 -7.95139e-015
lhumerus 0.588191 -34.9862 74.5633
lradius 75.9274
lwrist 9.50088
lhand -12.4179 -31.4068
lfingers 7.12502
lthumb 13.6542 -1.8747
rfemur 0 0 0
rtibia 0
rfoot 0 0
rtoes 0
lfemur -6.99076 -6.7842 -11.6612
ltibia 22.6912
lfoot -23.9439 16.4032
ltoes -53.7518
557
root -0.615351 18.7599 5.48571 3.48272 -2.82391 -2.72041
lowerback 7.99767 1.67079 -0.608116
upperback 1.76248 2.10934 -1.90334
thorax -2.6077 1.049 -1.83585
lowerneck -15.4095 -2.66336 -1.53861
upperneck 31.8198 -5.11387 4.96569
head 13.4848 -1.75778 1.40744
rclavicle 7.35503e-015 -4.77083e-015
rhumerus 1.87838 46.3277 -48.8602
rradius 85.1572
rwrist 13.5079
rhand -1.57979 -39.2543
rfingers 7.12502
rthumb 24.0764 -427.764
lclavicle 7.35503e-015 -4.77083e-015
lhumerus 0.752758 -35.021 74.9002
lradius 75.8827
lwrist 9.57743
lhand -12.3151 -31.498
lfingers 7.12502
lthumb 13.7534 -1.97256
rfemur 0 0 0
rtibia 0
rfoot 0 0
rtoes 0
lfemur -7.07035 -6.69292 -11.5962
ltibia 22.7303
lfoot -23.8958 16.2646
ltoes -53.7628
558
root -0.619526 18.7579 5.48197 3.46881 -2.7271 -2.77446
lowerback 8.43933 1.80109 -0.531628
upperback 1.51774 2.27768 -1.86874
thorax -3.10027 1.12915 -1.88278
lowerneck -15.1226 -2.81917 -1.65195
upperneck 31.7159 -5.30223 4.97844
head 13.3898 -1.85776 1.40386
rclavicle -7.95139e-015 1.74931e-014
rhumerus 1.15279 46.6723 -48.6625
rradius 85.1117
rwrist 12.7439
rhand -0.582336 -39.6275
rfingers 7.12502
rthumb 25.0325 -428.007
lclavicle -7.95139e-015 1.74931e-014
lhumerus 0.50016 -35.4058 75.249
lradius 75.9298
lwrist 9.61928
lhand -12.2269 -31.5849
lfingers 7.12502
lthumb 13.8383 -2.06525
rfemur 0 0 0
rtibia 0
rfoot 0 0
rtoes 0
lfemur -7.11373 -6.59191 -11.5019
ltibia 22.771
lfoot -23.8445 16.0814
ltoes -53.7772
559
root -0.622997 18.757 5.4771 3.44243 -2.61265 -2.82697
lowerback 8.65442 1.79823 -0.604599
upperback 1.42838 2.26618 -1.74717
thorax -3.32057 1.12321 -1.72523
lowerneck -14.8512 -2.80221 -1.55743
upperneck 31.5599 -5.1958 4.68743
head 13.2451 -1.84586 1.29123
rclavicle -6.55989e-015 3.97569e-015
rhumerus 1.03337 46.5755 -48.3526
rradius 85.4206
rwrist 12.8395
rhand -1.07911 -39.6595
rfingers 7.12502
rthumb 24.5564 -428.105
lclavicle -6.55989e-015 3.97569e-015
lhumerus 0.271666 -35.3875 75.3778
lradius 76.0199
lwrist 9.63529
lhand -12.1701 -31.5731
lfingers 7.12502
lthumb 13.8931 -2.0572
rfemur 0 0 0
rtibia 0
rfoot 0 0
rtoes 0
lfemur -7.14475 -6.53779 -11.4142
ltibia 22.8021
lfoot -23.7586 15.9393
ltoes -53.8171
560
root -0.626969 18.7571 5.4705 3.40591 -2.49504 -2.83587
lowerback 8.78416 1.69696 -0.721217
upperback 1.42198 2.12191 -1.64887
thorax -3.41082 1.05282 -1.54656
lowerneck -14.6361 -2.66279 -1.38077
upperneck 31.4462 -4.94164 4.40339
head 13.1242 -1.75708 1.19061
rclavicle 2.44505e-014 -1.43125e-014
rhumerus 1.37243 45.8624 -48.0775
rradius 86.5767
rwrist 11.8439
rhand -2.60777 -40.3951
rfingers 7.12502
rthumb 23.0903 -429.032
lclavicle 2.44505e-014 -1.43125e-014
lhumerus 0.077214 -35.2184 75.1968
lradius 76.1553
lwrist 9.7795
lhand -12.1371 -31.6236
lfingers 7.12502
lthumb 13.9249 -2.10981
rfemur 0 0 0
rtibia 0
rfoot 0 0
rtoes 0
lfemur -7.17124 -6.52025 -11.3739
ltibia 22.8232
lfoot -23.6669 15.8214
ltoes -53.8406
561
root -0.631253 18.7583 5.46365 3.38683 -2.4161 -2.83661
lowerback 8.78384 1.54785 -0.781707
upperback 1.50809 1.92161 -1.59475
thorax -3.3292 0.954661 -1.43163
lowerneck -14.5497 -2.46186 -1.238
upperneck 31.4263 -4.63853 4.25082
head 13.0762 -1.62981 1.15413
rclavicle 1.59028e-015 -1.82882e-014
rhumerus 2.04592 44.5897 -47.922
rradius 87.8272
rwrist 11.3642
rhand -2.68056 -40.6231
rfingers 7.12502
rthumb 23.0205 -429.268
lclavicle 1.59028e-015 -1.82882e-014
lhumerus 0.0543877 -34.9788 74.7077
lradius 76.2784
lwrist 9.97586
lhand -11.9705 -31.6801
lfingers 7.12502
lthumb 14.0855 -2.17749
rfemur 0 0 0
rtibia 0
rfoot 0 0
rtoes 0
lfemur -7.20265 -6.48714 -11.3421
ltibia 22.8321
lfoot -23.5969 15.7195
ltoes -53.8103
562
root -0.633439 18.7599 5.45939 3.393 -2.34614 -2.81996
lowerback 8.43061 1.31561 -0.89606
upperback 1.75585 1.61674 -1.51346
thorax -2.88721 0.805779 -1.23399
lowerneck -14.4965 -2.16509 -1.0796
upperneck 31.3747 -4.18033 4.0396
head 13.0154 -1.44068 1.11494
rclavicle -2.60408e-014 -6.36111e-015
rhumerus 3.31084 43.065 -47.6594
rradius 89.0125
rwrist 11.0651
rhand -2.25595 -40.4069
rfingers 7.12502
rthumb 23.4279 -429.001
lclavicle -2.60408e-014 -6.36111e-015
lhumerus 0.234927 -34.4385 74.0404
lradius 76.2923
lwrist 10.1012
lhand -11.681 -31.7359
lfingers 7.12502
lthumb 14.3644 -2.25284
rfemur 0 0 0
rtibia 0
rfoot 0 0
rtoes 0
lfemur -7.23728 -6.56522 -11.3487
ltibia 22.8256
lfoot -23.5943 15.7503
ltoes -53.7667
